<?xml version="1.0" standalone="no"?>
<!DOCTYPE svg PUBLIC "-//W3C//DTD SVG 20010904//EN"
        "http://www.w3.org/TR/2001/REC-SVG-20010904/DTD/svg10.dtd">
<svg version="1.0" xmlns="http://www.w3.org/2000/svg"
     width="36" height="36" viewBox="0 0 2048.000000 2048.000000"
     preserveAspectRatio="xMidYMid meet">

    <g transform="translate(0.000000,2048.000000) scale(0.100000,-0.100000)"
       fill="#000000" stroke="none">
        <path d="M8890 17170 c-542 -42 -942 -127 -1420 -302 -62 -22 -56 -20 -200
-83 -481 -212 -890 -488 -1239 -834 -269 -267 -448 -514 -616 -851 -164 -329
-248 -602 -301 -980 -25 -174 -25 -566 -1 -740 57 -406 138 -663 320 -1010
159 -303 315 -518 546 -753 141 -144 308 -285 446 -377 99 -66 193 -120 210
-120 7 0 51 16 97 36 98 42 410 133 576 168 327 69 616 104 917 112 121 3 231
7 244 10 23 5 23 6 17 102 -14 211 -36 1046 -36 1382 0 221 7 464 18 645 14
240 16 409 13 983 -3 580 -1 692 10 692 8 0 39 -19 69 -42 30 -23 141 -98 245
-166 105 -68 201 -132 215 -142 209 -143 352 -237 425 -277 50 -28 113 -63
140 -78 79 -44 230 -150 355 -250 134 -106 348 -273 470 -366 150 -115 332
-235 670 -444 168 -104 600 -399 760 -519 41 -31 116 -86 165 -121 50 -35 108
-79 130 -98 l40 -35 -60 -62 c-56 -57 -200 -160 -358 -255 -55 -33 -499 -336
-570 -390 -12 -9 -53 -38 -92 -66 -38 -27 -115 -83 -170 -124 -55 -40 -219
-154 -365 -251 -255 -171 -400 -277 -400 -292 0 -4 100 -33 223 -64 200 -51
337 -87 497 -131 80 -23 482 -160 575 -197 44 -18 102 -41 129 -52 27 -10 59
-17 70 -14 19 5 124 83 403 297 54 41 152 112 218 158 302 207 485 340 586
426 75 64 350 245 614 404 122 74 240 160 437 320 57 46 171 130 255 188 84
58 164 116 178 130 34 35 32 66 -8 105 -50 49 -301 204 -477 294 -214 110
-428 254 -645 434 -140 116 -408 321 -535 409 -121 84 -492 321 -503 321 -3 0
-28 13 -54 28 -26 16 -102 56 -168 90 -135 70 -221 131 -398 285 -152 131
-183 155 -331 259 -200 140 -251 174 -556 378 -162 108 -342 235 -399 281
-203 165 -308 239 -536 377 -222 134 -176 122 -446 112 -363 -14 -589 -45
-914 -126 -445 -112 -936 -346 -1244 -593 l-44 -36 7 -220 c4 -121 12 -328 17
-460 12 -285 24 -2328 14 -2432 -4 -40 -10 -73 -15 -73 -5 0 -62 35 -127 78
-338 225 -578 535 -704 912 -65 198 -82 297 -87 537 -7 364 43 613 188 928
122 265 365 581 595 772 460 382 953 608 1620 742 270 54 756 87 1058 71 474
-25 791 -71 1107 -161 368 -106 464 -165 587 -365 142 -230 269 -302 683 -383
445 -87 571 -114 631 -131 210 -63 388 -95 477 -87 58 6 192 59 192 76 0 3
-19 17 -41 29 -31 18 -67 26 -142 33 -59 6 -167 27 -257 51 -262 69 -505 115
-710 133 -99 9 -234 38 -290 64 -51 23 -114 83 -129 124 -32 85 10 170 108
220 55 27 151 38 151 17 0 -5 -11 -10 -25 -10 -51 0 -124 -50 -152 -103 -12
-24 -12 -38 -3 -77 25 -104 122 -148 395 -180 239 -27 517 -73 774 -127 137
-28 233 -28 326 0 28 9 75 23 105 31 115 32 196 111 225 222 38 148 34 155
-285 436 -196 172 -328 308 -392 403 -136 205 -199 240 -457 255 -93 6 -205
20 -276 35 -216 46 -268 54 -420 64 -191 13 -270 28 -535 103 -303 86 -450
123 -645 164 -174 36 -553 94 -750 114 -139 15 -862 21 -1015 10z m1063 -166
c95 -25 186 -75 245 -137 28 -31 52 -60 52 -65 0 -6 -14 -15 -31 -21 -29 -10
-34 -8 -83 35 -69 60 -158 103 -244 116 -59 9 -86 8 -158 -6 -125 -24 -207
-62 -323 -150 -44 -33 -61 -33 -92 0 l-24 26 44 40 c57 50 225 133 321 158 92
23 212 25 293 4z m-497 -9 c10 -8 14 -15 8 -15 -14 0 -141 -77 -186 -113 l-37
-29 -34 21 c-61 37 -62 44 -12 80 87 62 216 90 261 56z m-630 -26 c24 -6 44
-15 44 -19 0 -4 -30 -13 -66 -19 -85 -15 -179 -50 -251 -92 -62 -37 -190 -158
-219 -208 -20 -35 -38 -38 -90 -16 l-35 15 32 47 c80 116 241 239 373 285 59
20 147 23 212 7z m-456 -68 c0 -5 -24 -29 -53 -54 -29 -24 -79 -77 -112 -116
-32 -39 -65 -71 -73 -71 -11 0 -69 26 -81 36 -12 10 119 148 164 172 64 33
155 53 155 33z m715 -52 c33 -14 107 -58 164 -99 100 -73 229 -163 267 -187
17 -10 17 -13 4 -22 -52 -36 -187 11 -284 100 -127 115 -297 188 -438 189 -26
0 -50 5 -53 10 -3 6 -5 10 -3 10 2 0 21 7 43 15 64 24 224 15 300 -16z m917
-9 c50 -24 128 -95 128 -115 0 -6 -11 -17 -24 -24 -22 -12 -29 -10 -77 27 -30
21 -87 58 -126 81 -40 23 -73 47 -73 53 0 19 121 4 172 -22z m641 8 c27 -14
20 -24 -25 -37 -105 -31 -256 -114 -523 -287 -131 -85 -206 -123 -260 -133
-47 -9 -95 -4 -95 10 0 4 51 38 113 75 61 37 196 120 298 185 221 139 296 179
369 195 54 12 89 10 123 -8z m399 -111 c90 -44 124 -80 202 -212 66 -112 97
-155 170 -235 49 -54 49 -55 23 -58 -64 -8 -164 85 -247 228 -105 183 -173
231 -331 238 -113 5 -169 -8 -299 -71 -47 -22 -88 -42 -92 -44 -10 -5 -58 46
-58 62 0 18 167 102 237 120 40 10 100 14 189 12 129 -2 132 -3 206 -40z
m-3210 -51 c40 -8 111 -28 158 -44 47 -17 131 -47 187 -67 80 -28 287 -75 336
-75 17 0 4 -20 -25 -38 -81 -49 -170 -36 -468 68 -274 96 -354 106 -454 60
-50 -24 -77 -48 -136 -120 -57 -69 -101 -138 -136 -213 l-26 -59 -37 7 c-20 4
-40 11 -45 15 -6 6 16 61 54 137 52 105 75 139 126 190 138 135 273 176 466
139z m1118 -5 c0 -27 -54 -90 -188 -219 -148 -142 -208 -175 -329 -181 -105
-4 -196 14 -443 89 -195 59 -370 100 -429 100 -39 0 -39 11 -1 44 62 51 148
48 325 -14 323 -113 394 -133 495 -134 125 -1 162 17 300 150 167 161 196 184
236 184 27 0 34 -4 34 -19z m1039 -5 l22 -24 -33 -25 c-64 -49 -261 -169 -327
-200 -77 -37 -183 -47 -283 -27 -65 12 -228 87 -228 103 0 16 31 47 46 47 8 0
44 -14 81 -31 175 -81 293 -59 528 97 140 92 158 98 194 60z m-879 -13 c14 -9
28 -21 32 -26 7 -12 -145 -187 -205 -236 -23 -18 -60 -42 -82 -51 -49 -22
-135 -35 -135 -21 0 5 36 42 80 82 44 41 119 117 166 171 48 54 94 98 103 98
9 0 28 -8 41 -17z m2405 8 c3 -6 -32 -34 -77 -64 -131 -85 -125 -83 -148 -45
-25 42 -25 42 7 63 65 43 202 71 218 46z m-528 -57 c49 -28 86 -73 175 -209
75 -115 146 -186 221 -220 62 -29 178 -34 265 -11 28 8 52 10 52 6 0 -17 -69
-62 -116 -76 -62 -18 -128 -18 -195 2 -119 35 -205 109 -306 262 -102 155
-128 187 -184 232 -26 21 -45 41 -41 45 12 12 86 -5 129 -31z m944 -6 c41 -21
110 -59 154 -85 72 -43 86 -48 140 -48 33 0 73 4 89 9 26 8 27 7 17 -11 -16
-31 -73 -53 -135 -53 -62 0 -114 22 -220 92 -110 73 -131 80 -216 76 -68 -3
-88 -8 -171 -50 -52 -26 -117 -65 -146 -87 l-52 -40 -21 26 c-36 46 -29 55
103 128 122 67 189 86 293 82 82 -2 100 -7 165 -39z m-1552 -29 c12 -16 58
-56 101 -89 43 -32 76 -61 73 -64 -14 -14 -106 -5 -144 14 -44 23 -115 83
-130 112 -8 15 -4 21 23 38 44 26 50 25 77 -11z m-3175 -151 c-109 -218 -156
-348 -204 -573 -32 -151 -62 -214 -113 -246 -41 -25 -48 -24 -43 4 38 173 112
476 135 547 47 141 107 255 168 316 28 28 83 55 95 48 4 -3 -13 -46 -38 -96z
m5498 92 c40 -11 112 -85 157 -160 27 -47 21 -49 -58 -20 -75 27 -129 66 -210
153 l-35 37 55 0 c29 0 71 -5 91 -10z m-2459 -23 c40 -41 104 -86 151 -107 91
-39 181 -24 400 64 99 40 121 43 148 19 41 -37 24 -49 -160 -118 -163 -61
-200 -69 -295 -63 -99 7 -149 28 -241 104 -75 62 -93 92 -68 112 23 18 40 15
65 -11z m1585 -103 c42 -15 82 -30 87 -34 20 -16 120 -40 166 -40 26 0 91 9
145 21 110 23 207 20 272 -7 20 -8 79 -47 130 -87 143 -110 196 -146 210 -147
16 0 15 -19 -2 -26 -18 -7 -78 24 -190 99 -140 92 -198 117 -278 117 -37 0
-116 -9 -175 -21 -136 -26 -175 -22 -323 38 -125 50 -221 65 -281 44 -40 -14
-48 -7 -23 20 49 55 144 63 262 23z m-4035 -34 c7 0 18 -4 26 -9 15 -10 -18
-76 -111 -222 -117 -184 -240 -241 -473 -218 -148 13 -152 16 -139 65 5 21 11
21 167 20 152 -1 165 0 206 23 66 34 140 115 190 206 61 110 90 148 108 141 8
-3 20 -6 26 -6z m3231 -12 c9 -12 16 -28 16 -34 0 -15 -126 -68 -207 -89 -48
-12 -67 -12 -111 -2 -29 7 -53 16 -53 22 -1 11 287 124 318 125 12 0 29 -10
37 -22z m-3056 -39 c27 -10 22 -23 -40 -107 -60 -81 -158 -142 -158 -99 0 7
30 61 66 120 71 115 64 111 132 86z m-1044 -90 c3 -3 0 -23 -7 -45 l-14 -39
-109 3 c-93 3 -118 0 -169 -18 -74 -28 -165 -115 -200 -193 -28 -60 -55 -179
-55 -240 0 -63 -9 -84 -41 -97 -45 -19 -59 -8 -59 46 0 80 39 245 77 324 61
127 169 217 306 255 51 14 258 17 271 4z m312 -75 c54 -11 108 -15 171 -12 51
3 93 2 93 -2 0 -11 -43 -47 -80 -65 -28 -15 -52 -17 -140 -12 -58 3 -117 10
-132 16 -24 9 -26 13 -18 40 9 31 18 51 25 51 1 0 38 -7 81 -16z m-358 -78 c2
-3 1 -21 -2 -41 l-7 -35 -90 0 c-59 0 -119 -7 -171 -20 -44 -12 -84 -20 -89
-18 -14 5 49 77 83 94 47 24 107 33 192 29 43 -3 81 -7 84 -9z m5543 -48 c37
-12 53 -23 132 -91 28 -25 72 -61 96 -79 58 -43 65 -61 19 -53 -19 4 -59 2
-89 -4 -30 -6 -76 -15 -103 -21 -40 -8 -56 -7 -90 8 -54 24 -100 78 -121 141
-17 51 -17 51 -60 51 -31 0 -45 5 -49 16 -8 21 -10 20 54 32 78 14 171 14 211
0z m-5581 -110 c0 -21 -49 -249 -66 -308 -34 -119 -90 -202 -171 -256 -54 -36
-161 -69 -243 -75 l-45 -4 0 39 0 38 87 22 c56 14 104 34 137 56 85 58 116
119 162 325 36 158 46 175 99 175 25 0 40 -5 40 -12z m-607 -110 c-12 -62 -23
-139 -23 -171 l0 -58 -42 -19 c-23 -10 -46 -16 -50 -14 -13 8 -9 134 6 189 17
66 42 113 79 153 51 53 55 42 30 -80z m7083 -146 c52 -38 66 -56 58 -76 -16
-41 -133 -70 -169 -42 -19 15 -19 15 8 16 22 0 52 13 86 37 2 1 -1 9 -8 17
-19 23 -69 28 -97 10 -33 -22 -41 -11 -21 31 15 32 20 35 60 35 32 0 54 -8 83
-28z m-6726 -70 c0 -32 -47 -87 -96 -114 -31 -16 -84 -31 -144 -41 -175 -28
-276 -82 -417 -226 -78 -78 -83 -82 -83 -55 0 48 46 131 106 194 107 112 204
158 413 194 88 15 153 32 173 44 42 26 48 26 48 4z m-547 -62 c4 -15 -7 -28
-43 -55 -162 -119 -235 -277 -247 -530 -10 -228 35 -425 152 -667 66 -135 78
-187 56 -243 -6 -16 -14 -8 -48 50 -111 191 -209 423 -240 565 -13 63 -18 129
-18 255 0 197 19 288 83 409 48 88 150 186 224 214 67 26 74 26 81 2z m216
-295 c6 -38 18 -99 26 -135 25 -114 17 -205 -23 -268 -18 -28 -27 -18 -37 48
-4 25 -22 114 -41 197 -19 84 -34 171 -34 193 0 38 3 42 43 60 l42 19 6 -22
c4 -12 12 -53 18 -92z m-160 -58 c5 -12 23 -89 40 -170 48 -227 41 -362 -23
-471 -29 -50 -119 -142 -158 -162 -26 -14 -28 -13 -43 15 -8 17 -15 35 -15 41
0 6 30 41 66 77 124 124 134 177 84 458 -16 94 -30 176 -30 183 0 17 37 52 55
52 9 0 19 -10 24 -23z m-516 -314 c11 -231 53 -363 212 -685 63 -125 122 -254
131 -285 24 -79 24 -230 0 -298 -28 -75 -85 -195 -94 -195 -9 0 -44 36 -56 57
-3 6 10 51 31 100 34 80 38 97 38 178 0 106 -5 123 -117 355 -200 415 -260
602 -237 737 10 59 58 153 77 153 5 0 12 -53 15 -117z m427 -138 c0 -25 -6
-61 -14 -80 -15 -34 -101 -135 -116 -135 -13 0 -41 81 -35 100 3 10 22 30 43
45 43 32 102 93 102 106 0 5 5 9 10 9 6 0 10 -20 10 -45z m-512 -270 c18 -39
15 -51 -24 -118 -45 -77 -68 -179 -59 -261 26 -224 212 -589 363 -714 26 -21
89 -69 140 -106 94 -69 137 -124 130 -168 -3 -17 -22 -7 -148 77 -158 106
-267 209 -346 326 -256 385 -293 726 -105 956 32 39 35 39 49 8z m77 -179 c18
-45 18 -48 1 -74 -9 -15 -32 -58 -51 -97 -28 -59 -35 -67 -42 -50 -4 11 -8 49
-8 85 0 51 6 79 29 128 16 34 34 61 40 59 6 -2 20 -25 31 -51z m-260 -449 c12
-51 79 -201 134 -296 50 -87 50 -88 38 -131 l-12 -43 -52 56 c-58 64 -116 162
-133 226 -19 73 -12 240 10 226 5 -3 12 -20 15 -38z m471 -62 c3 -20 4 -54 0
-76 -8 -48 -55 -169 -66 -169 -12 0 -50 64 -50 85 0 28 82 195 96 195 7 0 16
-16 20 -35z m-187 -431 c19 -21 30 -43 27 -52 -19 -62 -26 -123 -26 -232 l0
-125 -20 25 c-11 14 -27 48 -37 75 -32 90 -19 345 17 345 4 0 22 -16 39 -36z
m-136 -164 c10 -176 62 -300 178 -424 97 -104 234 -191 384 -245 33 -12 133
-34 221 -50 172 -31 197 -39 215 -73 l11 -21 -143 6 c-147 6 -241 21 -339 55
-403 141 -629 432 -607 779 4 52 12 103 18 115 l12 22 22 -28 c19 -23 23 -45
28 -136z m293 17 c33 -23 124 -86 205 -139 149 -98 194 -139 229 -208 42 -83
61 -212 44 -299 -6 -28 -10 -31 -33 -27 -58 10 -59 10 -63 124 -6 165 -29 198
-239 338 -183 122 -245 188 -225 239 8 22 18 19 82 -28z m271 -379 c38 -40 53
-92 53 -178 0 -48 -4 -80 -10 -80 -23 0 -80 30 -82 42 0 7 -2 54 -3 103 0 50
-5 105 -9 123 -7 31 -6 33 11 24 10 -6 28 -21 40 -34z m-481 -209 c43 -47 119
-101 209 -149 93 -50 125 -76 125 -102 0 -24 -31 -24 -101 1 -153 53 -247 140
-274 254 -9 36 4 34 41 -4z m502 -269 c1 0 2 -12 2 -28 0 -48 46 -194 84 -271
21 -40 35 -75 32 -78 -9 -9 -73 36 -110 77 -59 66 -102 168 -107 255 -4 77 -5
76 49 60 26 -8 48 -15 50 -15z m263 -34 c227 -21 309 -57 393 -170 40 -53 76
-157 76 -216 0 -41 -11 -49 -61 -42 -24 3 -27 11 -43 80 -19 91 -57 154 -117
194 -54 36 -93 46 -262 68 -147 18 -177 32 -177 77 0 28 -10 27 191 9z m-433
-51 c8 -7 24 -42 36 -77 28 -79 82 -163 138 -213 130 -118 385 -164 790 -141
l157 8 12 -26 c17 -37 4 -47 -83 -63 -106 -19 -446 -28 -546 -15 -87 12 -201
47 -287 88 -80 37 -176 131 -219 214 -40 75 -76 186 -76 232 0 26 1 27 33 16
17 -6 38 -16 45 -23z m654 -146 c27 -15 60 -67 79 -131 29 -93 28 -98 -31 -98
-49 0 -49 1 -59 38 -5 20 -13 54 -17 75 -3 20 -19 56 -35 80 -16 23 -29 46
-29 50 0 9 67 -1 92 -14z m-256 -429 c44 -11 114 -23 157 -26 l78 -7 20 -38
c34 -69 31 -73 -65 -67 -69 5 -94 11 -145 38 -34 19 -76 52 -97 76 -19 24 -33
44 -31 44 2 0 40 -9 83 -20z m833 14 c25 -5 31 -11 29 -28 -6 -39 -158 -88
-277 -90 l-75 -1 -14 38 c-8 20 -13 39 -11 41 5 5 254 43 290 45 15 0 41 -2
58 -5z m-369 -169 c31 -71 64 -145 74 -163 34 -65 -8 -84 -69 -31 -45 40 -77
95 -122 207 -19 48 -37 92 -40 99 -6 14 20 22 66 20 34 -2 35 -3 91 -132z"/>
        <path d="M12401 15946 c-6 -8 -14 -37 -18 -65 -10 -84 33 -109 81 -47 33 44
33 66 -2 99 -32 30 -44 33 -61 13z"/>
        <path d="M13415 15289 c-27 -9 -59 -20 -70 -23 -16 -5 -5 -14 50 -42 86 -45
131 -80 265 -209 165 -159 205 -185 380 -255 91 -36 185 -83 200 -100 3 -3 21
-17 42 -32 37 -28 128 -155 128 -179 0 -9 3 -10 10 -3 14 14 -6 106 -37 167
-13 26 -48 72 -78 102 -58 59 -58 59 30 56 78 -4 151 -29 222 -78 36 -24 67
-42 70 -39 13 13 -52 99 -103 135 -73 52 -148 76 -322 101 -164 24 -214 40
-298 98 -60 42 -87 65 -204 176 -81 76 -185 146 -213 145 -12 -1 -44 -10 -72
-20z"/>
        <path d="M8285 11344 c-705 -37 -1112 -120 -1640 -334 -394 -160 -762 -428
-1010 -735 -189 -234 -347 -540 -425 -823 -68 -250 -75 -302 -75 -597 1 -348
26 -532 106 -775 168 -506 561 -1010 1019 -1307 114 -74 201 -126 204 -122 2
2 20 36 39 74 44 86 80 137 181 257 44 51 71 85 60 76 -44 -39 -367 -67 -449
-39 -138 46 -219 114 -279 235 -44 88 -68 170 -55 183 5 5 23 7 39 5 23 -3 32
-11 36 -31 34 -161 120 -275 232 -307 49 -14 82 -16 232 -9 270 11 265 12 262
-3 -1 -7 56 40 128 104 l130 117 -32 24 c-18 13 -67 44 -108 67 -67 39 -136
89 -289 207 -75 58 -202 199 -264 292 -159 239 -227 475 -227 788 0 219 37
401 125 614 140 339 421 631 758 790 496 233 1211 308 2047 214 392 -44 547
-69 985 -159 693 -142 1235 -333 1739 -612 146 -81 409 -263 555 -383 93 -78
129 -111 228 -213 171 -174 281 -327 378 -527 139 -287 185 -492 185 -829 0
-242 -43 -451 -137 -659 -88 -195 -189 -350 -285 -439 -24 -22 -62 -57 -86
-79 -121 -114 -375 -257 -589 -332 -307 -108 -704 -124 -1037 -41 -99 25 -121
33 -278 97 -239 99 -505 255 -713 420 -359 286 -723 556 -826 615 -19 11 -68
39 -109 62 -65 38 -193 101 -310 153 -193 86 -494 147 -727 147 -248 0 -453
-45 -673 -148 -168 -79 -395 -257 -560 -440 -230 -256 -475 -798 -529 -1172
-5 -36 -18 -114 -28 -175 -22 -138 -26 -673 -5 -825 25 -181 106 -532 159
-690 67 -199 247 -495 435 -715 175 -205 453 -427 713 -570 304 -166 481 -229
559 -199 44 17 -5 84 -131 180 -320 241 -609 523 -761 741 -108 154 -235 399
-290 558 -109 317 -158 676 -132 976 35 415 129 747 287 1019 165 282 341 456
590 583 165 84 264 110 488 127 244 18 472 -35 669 -158 184 -115 325 -243
625 -572 135 -148 359 -365 438 -427 20 -15 47 -38 59 -49 12 -12 36 -31 53
-44 33 -22 33 -40 1 -40 -25 0 -135 51 -187 86 -101 70 -271 233 -457 439
-201 223 -326 344 -380 369 -49 23 -199 73 -675 226 -207 67 -228 72 -284 66
-180 -19 -414 -139 -577 -296 -38 -37 -70 -72 -70 -77 0 -15 586 -253 870
-353 91 -32 201 -72 245 -89 44 -17 134 -49 200 -71 66 -23 135 -48 153 -56
32 -15 107 -41 482 -169 262 -89 573 -188 725 -230 72 -20 175 -49 230 -65 55
-16 118 -33 140 -39 22 -5 85 -21 140 -35 546 -140 1044 -178 1433 -111 340
59 698 200 1012 397 152 96 254 181 436 363 237 237 416 501 548 808 43 99 43
100 97 292 75 266 105 505 95 759 -10 249 -26 368 -77 579 -68 275 -173 536
-299 742 -146 239 -293 434 -441 585 -322 329 -614 552 -1019 778 -172 96
-473 239 -665 317 -49 20 -99 40 -110 45 -95 44 -608 215 -780 260 -66 17
-149 41 -185 51 -232 71 -714 162 -1150 218 -384 49 -884 78 -1135 65z m-122
-228 c63 -32 98 -61 213 -178 161 -164 195 -192 288 -243 76 -42 74 -53 -12
-54 -85 -2 -142 37 -317 214 -134 136 -171 167 -228 195 -57 28 -79 33 -140
34 -60 0 -83 -5 -137 -30 -89 -43 -175 -110 -246 -193 -32 -38 -63 -70 -67
-70 -4 -1 -23 6 -43 14 -35 14 -35 14 -19 44 26 51 131 155 207 207 40 27 109
62 153 77 70 24 92 27 177 25 88 -3 102 -7 171 -42z m597 19 c0 -3 -37 -23
-82 -46 -46 -23 -113 -65 -149 -95 l-66 -53 -34 35 -33 34 24 25 c32 35 117
82 166 94 41 10 174 14 174 6z m-1140 -33 c0 -5 -19 -23 -42 -40 -61 -44 -132
-114 -168 -167 l-31 -46 -37 22 c-20 12 -41 26 -47 31 -10 9 95 113 158 156
52 35 167 65 167 44z m1458 -12 c23 -11 53 -26 65 -35 21 -15 19 -15 -34 -9
-124 14 -287 -42 -456 -157 -40 -27 -76 -49 -81 -49 -4 0 -21 14 -37 30 l-29
31 29 25 c177 148 418 221 543 164z m598 -70 c35 -14 25 -22 -56 -50 -36 -12
-92 -38 -126 -56 -33 -19 -68 -34 -77 -34 -8 0 -29 12 -47 26 -25 21 -28 29
-18 41 13 16 74 49 127 68 44 16 160 19 197 5z m-1599 -27 c45 -21 92 -61 213
-183 165 -166 226 -209 329 -231 95 -20 212 17 394 125 106 64 146 76 167 51
13 -16 10 -21 -25 -52 -22 -20 -73 -58 -114 -85 -211 -144 -405 -164 -596 -64
-58 30 -103 71 -285 262 -93 97 -169 145 -261 165 l-54 12 30 13 c52 23 138
17 202 -13z m2022 -16 c60 -21 47 -33 -56 -57 -119 -27 -292 -81 -393 -121
-110 -45 -111 -45 -148 -6 l-34 35 44 26 c67 39 168 74 307 106 135 31 225 36
280 17z m-947 -17 c94 -36 191 -110 397 -302 70 -64 146 -132 171 -151 159
-121 280 -114 510 27 41 25 82 46 91 46 10 0 29 -14 44 -32 l27 -32 -24 -17
c-41 -32 -241 -127 -303 -145 -80 -23 -183 -20 -268 6 -86 27 -196 108 -367
274 -69 67 -150 140 -180 163 -56 42 -225 134 -270 147 -24 6 -24 7 -6 21 28
21 115 19 178 -5z m-2066 -55 c98 -25 124 -36 297 -128 84 -44 151 -64 287
-84 l55 -8 -35 -22 c-81 -50 -185 -50 -296 1 -52 24 -68 34 -179 117 -75 55
-123 77 -197 89 -153 24 -301 -31 -413 -152 -84 -91 -134 -186 -180 -345 -9
-30 -24 -57 -35 -63 -28 -15 -90 -13 -90 4 0 26 51 191 78 251 59 132 194 276
302 323 115 50 256 55 406 17z m3317 10 c97 -29 158 -90 283 -280 125 -191
222 -300 314 -352 70 -39 64 -56 -21 -56 -98 0 -172 69 -339 312 -149 219
-235 315 -336 378 -17 11 -15 12 16 12 19 1 57 -6 83 -14z m-95 -82 c60 -40
94 -85 67 -91 -8 -2 -47 6 -88 17 -87 25 -164 26 -292 6 -92 -15 -135 -11
-135 14 0 13 110 59 192 81 108 30 183 22 256 -27z m-2232 -14 c19 -21 19 -22
-41 -76 -253 -229 -333 -273 -499 -273 -95 0 -231 49 -344 123 -42 28 -111 66
-152 84 -66 29 -85 33 -164 33 -48 0 -115 -7 -148 -16 -33 -8 -62 -13 -65 -11
-11 12 75 79 126 98 47 17 73 20 161 17 118 -4 143 -14 290 -119 42 -30 105
-68 140 -84 58 -27 76 -30 160 -30 88 0 101 3 162 33 39 19 106 67 160 115
158 140 175 149 214 106z m1732 -167 c72 -73 109 -103 145 -116 53 -20 59 -32
21 -46 -76 -29 -149 3 -265 117 -49 48 -89 90 -89 95 0 8 68 47 83 48 5 0 52
-44 105 -98z m-1636 61 c39 -37 35 -57 -16 -92 -52 -36 -84 -49 -150 -62 -81
-15 -87 1 -20 57 32 27 76 66 98 86 23 21 45 38 50 38 6 0 23 -12 38 -27z
m2857 6 c17 -6 31 -14 31 -18 0 -4 -33 -15 -73 -25 -41 -9 -100 -28 -133 -41
-75 -31 -76 -31 -97 4 -22 38 -22 38 13 56 64 33 197 45 259 24z m-1735 -40
c14 -11 26 -27 26 -34 0 -18 -97 -91 -156 -116 -48 -22 -133 -35 -159 -25 -12
4 -1 17 47 49 35 24 95 67 133 95 39 29 73 52 76 52 4 0 18 -9 33 -21z m1117
1 c37 0 139 -114 224 -251 55 -88 138 -181 193 -216 99 -64 201 -58 388 23 56
24 109 44 117 44 17 0 47 -37 47 -58 0 -15 -156 -90 -252 -122 -170 -56 -303
-27 -428 93 -29 28 -96 116 -148 196 -53 82 -125 177 -163 217 -38 39 -66 74
-62 78 5 4 21 5 37 2 16 -3 37 -6 47 -6z m-4090 -94 c-28 -57 -68 -173 -82
-235 -9 -43 -14 -49 -41 -55 -42 -8 -76 -8 -82 2 -8 13 49 175 76 217 43 67
129 136 147 119 3 -2 -5 -24 -18 -48z m657 45 c10 -6 3 -24 -31 -77 -41 -64
-106 -177 -174 -304 -15 -29 -50 -78 -78 -108 -113 -125 -226 -163 -577 -192
-125 -11 -214 -32 -291 -71 -68 -35 -69 -5 -1 71 64 71 160 98 374 106 170 6
253 25 329 74 79 51 120 103 226 288 122 211 130 222 174 222 20 0 42 -4 49
-9z m4425 -20 c75 -29 171 -102 219 -166 21 -27 72 -115 114 -195 115 -217
181 -325 236 -385 27 -29 45 -56 41 -58 -29 -18 -111 11 -155 55 -41 40 -142
231 -183 343 -10 28 -23 55 -30 60 -6 6 -31 37 -55 70 -109 148 -199 206 -329
213 -91 5 -205 -12 -290 -44 -78 -30 -92 -30 -118 -1 -38 42 -37 46 20 72 110
51 190 65 337 62 111 -3 145 -8 193 -26z m-1940 -100 c31 -31 57 -59 57 -63 0
-14 -64 -8 -105 11 -43 19 -105 75 -105 94 0 7 12 20 27 29 32 19 29 21 126
-71z m-2345 53 c12 -8 22 -20 22 -27 0 -21 -96 -158 -147 -211 -46 -47 -95
-76 -128 -76 -13 0 -9 13 18 63 134 245 159 281 190 271 12 -3 32 -12 45 -20z
m4256 -105 c44 -20 132 -104 155 -146 10 -20 8 -24 -28 -43 -22 -11 -47 -20
-54 -20 -8 0 -29 27 -46 60 -17 32 -55 84 -82 115 l-51 55 31 0 c17 0 51 -9
75 -21z m-919 -39 c34 -49 31 -53 -72 -105 -55 -28 -95 -40 -134 -43 -54 -4
-129 12 -129 27 0 4 37 24 83 44 45 21 111 55 147 76 36 22 68 40 71 40 4 1
19 -17 34 -39z m-3865 -134 c0 -27 -52 -77 -110 -106 -60 -30 -125 -41 -380
-59 -84 -6 -144 -16 -182 -31 -185 -69 -289 -292 -257 -551 l11 -94 -33 -27
c-41 -35 -53 -26 -67 50 -29 152 -21 291 23 410 46 121 140 238 230 284 90 47
157 59 360 69 192 9 273 21 360 53 22 8 41 15 43 15 1 1 2 -5 2 -13z m5615
-60 c56 -27 58 -29 35 -36 -14 -5 -56 -8 -94 -9 -37 -1 -115 -9 -172 -18 -65
-10 -108 -13 -114 -7 -5 5 -16 26 -24 46 l-16 37 43 10 c23 5 96 9 162 8 109
-2 125 -5 180 -31z m-595 -46 c12 -17 45 -81 74 -143 72 -155 99 -199 148
-234 84 -59 154 -67 408 -43 146 14 172 23 163 59 -7 29 -50 108 -64 117 -17
10 -9 24 14 24 37 0 102 -53 126 -103 23 -48 49 -163 38 -173 -10 -10 -226
-24 -402 -26 -149 -1 -178 2 -236 20 -112 37 -192 126 -290 326 -24 49 -49 91
-56 93 -7 3 -36 -6 -65 -20 -56 -26 -132 -51 -185 -62 -31 -6 -108 9 -117 23
-8 13 363 166 416 171 4 1 16 -13 28 -29z m725 -66 c93 -10 159 -39 217 -97
88 -88 111 -160 194 -611 46 -250 91 -354 177 -402 21 -12 96 -38 167 -59 70
-20 166 -56 212 -79 79 -39 83 -43 86 -76 4 -62 -6 -64 -99 -21 -46 21 -145
58 -219 81 -332 104 -345 127 -480 823 -38 197 -67 261 -145 313 -72 49 -200
57 -380 24 -99 -17 -111 -18 -126 -4 -25 23 -42 74 -26 79 44 13 133 29 202
35 79 7 105 7 220 -6z m-6121 -233 c19 -31 -57 -247 -90 -258 -17 -6 -23 40
-21 150 2 74 6 100 17 107 19 12 87 13 94 1z m-167 -216 c-7 -242 -33 -324
-138 -439 -31 -34 -85 -81 -119 -106 -167 -119 -246 -209 -273 -307 -6 -24
-14 -43 -17 -43 -14 0 -30 53 -30 96 0 94 60 173 243 318 141 112 182 159 216
250 18 49 21 78 21 219 0 186 7 209 60 217 44 6 44 10 37 -205z m6787 110 c81
-19 139 -44 193 -84 39 -28 81 -87 70 -97 -3 -3 -33 6 -67 20 -64 26 -146 49
-216 61 -44 7 -58 23 -68 83 -6 38 -4 38 88 17z m-7309 -362 c20 -79 18 -85
-33 -116 l-30 -17 -19 52 c-13 38 -18 82 -18 158 0 96 3 110 29 165 l29 60 12
-115 c6 -63 20 -147 30 -187z m7003 188 c17 -10 34 -83 22 -95 -4 -4 -93 -6
-197 -4 -182 3 -189 4 -228 29 -22 15 -46 34 -54 43 -12 15 -6 16 70 17 46 1
122 4 169 8 123 11 203 12 218 2z m392 -18 c72 -17 370 -158 411 -195 33 -29
79 -96 79 -114 0 -10 -28 0 -87 30 -149 74 -344 154 -433 176 -47 12 -88 25
-92 29 -4 4 -11 28 -14 55 l-7 47 39 -6 c21 -4 68 -14 104 -22z m-7055 -131
c-23 -59 -58 -97 -200 -215 -219 -183 -262 -249 -253 -393 4 -61 12 -87 52
-168 57 -115 131 -214 195 -259 25 -18 90 -57 144 -87 101 -56 167 -115 167
-150 0 -11 -2 -20 -5 -20 -16 0 -317 167 -355 197 -194 153 -314 400 -281 580
26 140 97 230 336 425 72 58 148 125 170 148 l40 41 3 -27 c2 -15 -4 -47 -13
-72z m6696 -21 c4 -3 19 -58 34 -121 15 -63 34 -132 42 -152 24 -60 11 -66
-39 -20 -54 50 -100 133 -122 223 -23 92 -23 90 32 83 26 -4 50 -9 53 -13z
m367 -35 c7 -7 15 -49 18 -102 6 -90 19 -148 48 -216 9 -20 12 -39 8 -42 -15
-9 -90 44 -110 77 -30 48 -50 127 -58 224 l-7 86 44 -7 c24 -4 50 -13 57 -20z
m153 -51 c90 -32 283 -126 374 -184 180 -113 262 -283 234 -485 -15 -115 -34
-140 -72 -98 -14 16 -16 33 -11 109 17 239 -64 340 -407 507 -153 74 -179 94
-179 136 0 35 3 35 61 15z m-7228 -346 c10 -30 21 -78 24 -108 8 -73 -7 -66
-76 34 l-54 78 32 29 c18 16 38 27 44 25 7 -2 20 -28 30 -58z m-79 -126 c72
-110 106 -197 106 -275 -1 -91 -37 -208 -65 -208 -7 0 -22 8 -34 18 l-22 17
27 75 c40 114 27 163 -85 330 -28 41 -51 81 -51 88 0 14 36 52 49 52 6 0 39
-44 75 -97z m7714 57 c48 -47 63 -101 60 -205 -3 -101 -8 -105 -74 -62 l-33
22 6 75 c3 41 1 100 -5 130 -15 80 -3 90 46 40z m-433 -144 c122 -36 225 -82
390 -174 288 -161 409 -274 434 -405 4 -26 6 -47 3 -47 -3 0 -51 44 -106 98
-98 95 -200 170 -359 266 -67 41 -136 75 -322 161 -84 39 -202 151 -137 131 9
-3 53 -16 97 -30z m-7295 -193 c0 -32 -24 -106 -43 -130 -11 -16 -42 -1 -57
27 -8 16 -4 33 21 82 43 87 50 94 66 72 7 -10 13 -33 13 -51z m-322 -153 c80
-104 156 -157 380 -267 268 -132 324 -189 351 -359 6 -38 12 -98 13 -134 3
-61 2 -65 -20 -68 -37 -5 -50 15 -57 86 -22 228 -71 290 -310 396 -61 27 -117
55 -126 62 -8 8 -26 14 -39 14 -18 0 -20 -3 -11 -14 14 -17 45 -195 36 -205
-11 -11 -63 57 -74 96 -6 21 -11 70 -11 109 0 56 -3 73 -16 78 -35 13 -37 7
-31 -92 9 -177 64 -251 254 -345 100 -49 173 -106 173 -134 0 -46 -280 76
-384 167 -101 90 -141 287 -90 457 5 18 1 23 -20 29 -58 14 -139 143 -152 242
-11 89 2 96 42 22 19 -36 60 -99 92 -140z m7773 110 c35 -18 39 -24 33 -48 -8
-37 -26 -95 -32 -106 -8 -14 -40 54 -47 99 -4 22 -9 48 -11 58 -7 22 8 22 57
-3z m158 -76 c13 -12 11 -29 -13 -127 -49 -195 -32 -259 105 -409 128 -140
233 -272 336 -423 42 -61 111 -212 124 -267 10 -47 10 -69 0 -114 -7 -31 -16
-52 -20 -48 -5 5 -27 58 -51 118 -23 60 -56 135 -73 165 -69 128 -206 310
-387 516 -44 50 -94 119 -112 154 -31 61 -33 72 -33 165 0 99 5 124 52 254 13
36 19 41 37 36 12 -3 27 -12 35 -20z m124 -72 c15 -16 14 -27 -8 -132 -13 -63
-27 -137 -30 -165 l-7 -50 -29 33 c-26 29 -29 40 -29 99 0 64 31 194 52 221
14 17 32 15 51 -6z m145 -102 c174 -137 270 -262 298 -386 15 -68 15 -88 4
-162 -12 -83 -61 -201 -86 -209 -6 -2 -16 7 -23 20 -11 20 -9 35 11 98 34 108
32 225 -4 299 -27 55 -117 155 -231 255 -46 41 -57 57 -57 81 0 57 20 58 88 4z
m-7670 -365 c43 -36 69 -97 83 -196 13 -88 9 -122 -13 -115 -7 3 -25 7 -39 10
-26 6 -26 7 -31 113 -4 76 -12 124 -27 161 -23 58 -17 64 27 27z m7829 -28
c30 -60 11 -247 -26 -247 -14 0 -71 72 -71 90 0 9 4 20 8 26 12 13 32 87 32
117 0 62 28 69 57 14z m-362 -167 c61 -65 118 -137 133 -166 14 -27 4 -64 -16
-64 -23 0 -188 175 -212 224 -12 25 -20 63 -20 91 l0 50 32 -40 c18 -22 55
-65 83 -95z m-7796 -24 c22 -20 166 -90 225 -110 60 -20 201 -41 366 -55 135
-10 160 -16 160 -36 0 -18 -20 -23 -125 -30 -182 -13 -438 30 -536 88 -57 34
-119 106 -119 138 0 23 8 24 29 5z m7841 -235 c0 -10 -20 -44 -45 -75 -88
-114 -84 -170 25 -361 83 -147 88 -162 59 -194 -26 -28 -21 -33 -104 100 -107
172 -119 203 -119 305 -1 89 0 92 38 149 21 32 52 73 68 91 29 31 31 32 54 17
13 -8 24 -23 24 -32z m165 -8 c14 -21 25 -42 25 -48 0 -5 -25 -31 -54 -57 -30
-26 -76 -82 -102 -124 l-49 -76 -17 22 c-20 25 -24 84 -8 125 10 27 158 194
172 195 4 0 19 -17 33 -37z m-7794 -13 c38 -11 49 -28 49 -82 0 -31 -3 -33
-31 -17 -25 13 -80 89 -73 100 7 11 11 11 55 -1z m302 -42 c9 -7 27 -42 40
-78 13 -36 34 -83 46 -105 26 -49 26 -55 2 -55 -33 0 -79 48 -116 122 -42 85
-46 128 -12 128 13 0 31 -6 40 -12z m412 -13 c54 -27 111 -88 140 -152 35 -75
33 -93 -8 -93 -29 0 -35 4 -46 38 -22 64 -58 109 -103 131 -38 18 -62 21 -166
21 l-122 0 -20 32 c-18 31 -19 33 -2 40 9 4 78 6 152 5 110 -2 142 -6 175 -22z
m1295 -75 c0 -5 -5 -10 -11 -10 -24 0 -103 -66 -157 -130 -45 -55 -63 -70 -84
-70 -30 0 -34 10 -17 43 27 52 84 109 142 141 59 34 127 48 127 26z m475 0 c3
-5 2 -10 -4 -10 -5 0 -39 -20 -76 -45 -69 -46 -84 -47 -113 -12 -15 17 6 38
58 61 40 17 126 21 135 6z m5425 -56 c16 -25 43 -85 61 -133 29 -77 33 -97 33
-196 1 -103 -1 -114 -31 -177 -63 -134 -181 -227 -397 -312 -83 -33 -102 -25
-65 29 15 22 67 62 144 109 129 81 200 145 237 216 19 38 23 60 23 140 -1 88
-3 101 -39 180 -74 166 -72 161 -51 176 33 24 54 16 85 -32z m-7179 -43 c39
-60 36 -86 -10 -86 -31 0 -36 4 -44 34 -4 19 -19 50 -32 70 -28 41 -18 55 28
39 18 -7 41 -29 58 -57z m1943 59 c21 -5 47 -17 58 -27 18 -18 16 -19 -49 -15
-64 3 -73 1 -163 -44 -52 -27 -98 -50 -102 -52 -4 -2 -16 6 -28 18 -18 18 -19
24 -9 36 27 33 175 93 229 93 14 0 43 -4 64 -9z m-500 -12 c29 -9 69 -39 136
-103 52 -50 119 -106 149 -125 46 -29 62 -34 115 -33 42 0 75 7 104 22 49 25
65 26 82 6 32 -39 -74 -87 -190 -87 -93 0 -154 29 -261 124 -110 98 -176 142
-235 158 -62 17 -74 27 -43 39 34 14 95 13 143 -1z m-416 -6 c-14 -33 -87
-121 -103 -124 -34 -6 -57 2 -51 19 11 28 51 71 86 92 35 20 75 28 68 13z
m1045 -89 c18 -20 73 -106 124 -192 68 -116 89 -159 81 -168 -27 -33 -65 4
-146 143 -63 107 -128 189 -171 216 -41 26 -31 38 30 38 45 0 53 -4 82 -37z
m205 -23 c17 -11 32 -22 32 -24 0 -9 -100 -35 -113 -30 -12 4 -47 55 -47 68 0
15 97 4 128 -14z m-893 -30 c9 -14 -155 -174 -204 -200 -71 -36 -170 -38 -331
-6 -74 15 -144 30 -155 35 -19 7 -18 8 5 21 30 16 130 17 185 1 22 -6 76 -14
121 -17 68 -6 87 -4 125 14 24 11 55 32 69 46 87 91 166 136 185 106z m96 -30
l24 -20 -40 -36 c-39 -35 -143 -89 -152 -80 -10 9 120 156 137 156 4 0 18 -9
31 -20z m-469 -14 c125 -17 136 -21 113 -46 -28 -30 -94 -33 -243 -9 -113 18
-144 20 -180 10 -60 -16 -91 -38 -124 -90 -27 -43 -28 -44 -28 -17 0 67 66
139 151 165 41 13 165 8 311 -13z m5699 -34 c20 -31 62 -102 94 -157 32 -55
67 -110 78 -123 l21 -22 25 23 c14 13 50 40 78 61 29 21 69 56 88 79 l35 41 0
-30 c0 -61 -21 -107 -73 -159 -54 -53 -183 -145 -204 -145 -7 0 -52 80 -100
178 -79 160 -88 184 -91 245 -3 37 0 67 4 67 5 0 25 -26 45 -58z m-4257 18
c57 -21 24 -43 -100 -65 -88 -15 -89 -15 -106 6 -26 31 -22 47 15 58 43 12
160 13 191 1z m-864 -56 c22 -20 40 -40 40 -45 0 -19 -49 -7 -89 22 -35 25
-40 33 -31 45 19 22 37 17 80 -22z m-1550 -56 c0 -22 -43 -58 -69 -57 -33 0
-114 33 -119 47 -3 11 36 18 131 20 38 1 57 -2 57 -10z m484 -62 c-3 -28 -9
-90 -14 -137 -6 -47 -7 -147 -4 -221 6 -114 4 -139 -9 -158 -15 -21 -16 -21
-25 -3 -37 69 -43 454 -7 523 43 85 66 83 59 -4z m1570 35 c26 -46 13 -55 -68
-47 -77 9 -103 29 -60 47 16 6 43 17 59 24 39 18 46 15 69 -24z m474 -5 c45
-28 70 -74 102 -191 77 -281 96 -314 196 -344 73 -23 194 -45 202 -36 3 2 -2
13 -11 23 -10 10 -17 21 -17 25 0 3 -18 44 -40 91 -45 95 -49 116 -21 116 56
0 113 -101 115 -202 1 -28 6 -50 14 -53 6 -2 12 -20 12 -40 l0 -35 -61 0
c-182 0 -336 89 -396 230 -8 19 -30 88 -48 153 -46 158 -67 195 -131 228 -29
14 -62 29 -75 33 -24 7 -24 7 6 22 40 19 105 11 153 -20z m-2153 -13 c-21 -54
-28 -233 -15 -378 17 -182 17 -247 -3 -275 -8 -12 -17 -18 -20 -13 -5 8 -31
133 -43 208 -4 22 -9 34 -11 27 -3 -7 -26 -23 -53 -37 -26 -13 -61 -35 -78
-49 -16 -15 -33 -26 -36 -26 -12 0 -6 31 14 69 21 42 85 81 133 81 24 0 27 4
27 35 0 19 -4 35 -9 35 -5 0 -40 -17 -78 -39 -94 -53 -126 -100 -131 -189 -2
-37 1 -86 6 -109 8 -36 7 -45 -9 -58 -24 -22 -34 -14 -49 40 -17 59 -8 190 16
240 34 72 106 125 204 150 l45 11 2 65 c3 73 24 149 53 197 21 34 47 45 35 15z
m2305 -23 c39 -20 73 -57 65 -70 -3 -4 -23 -6 -46 -5 -43 2 -56 15 -73 73 -9
28 3 28 54 2z m-1938 -26 c-13 -88 -69 -153 -154 -179 -76 -22 -90 -20 -86 12
2 22 11 29 48 41 58 19 102 52 131 99 13 21 28 41 33 45 17 12 31 3 28 -18z
m103 -21 c-12 -51 -37 -93 -67 -114 -16 -12 -31 -19 -34 -16 -3 3 6 31 19 63
13 33 27 67 30 77 4 10 17 17 33 17 24 0 25 -3 19 -27z m1643 -84 c3 -26 2
-26 -73 -32 -42 -3 -91 -3 -110 0 -34 5 -75 35 -75 54 0 6 48 9 128 7 l127 -3
3 -26z m335 -1 c60 -11 157 -63 165 -87 4 -11 -2 -12 -24 -6 -52 13 -148 25
-207 25 -52 0 -58 2 -67 26 -6 14 -10 34 -10 45 0 21 19 21 143 -3z m-302 -85
c20 -53 42 -143 37 -149 -24 -24 -98 88 -98 149 0 22 4 27 25 27 18 0 28 -8
36 -27z m4047 -100 c-21 -96 -21 -177 2 -413 11 -110 10 -133 -4 -190 -21 -80
-41 -114 -88 -153 -36 -29 -63 -32 -40 -5 15 20 49 136 56 199 4 32 1 110 -9
188 -30 261 -15 387 53 435 20 14 39 26 43 26 3 0 -3 -39 -13 -87z m-5938 43
c-14 -13 -46 -36 -72 -50 -44 -26 -47 -26 -52 -8 -4 11 -4 27 0 36 6 17 81 44
124 45 l25 1 -25 -24z m5805 -55 c-19 -55 -21 -180 -5 -362 16 -169 6 -260
-36 -347 -45 -93 -135 -133 -253 -114 -103 17 -124 27 -116 55 14 46 27 50 95
33 115 -30 158 -15 196 68 33 73 40 139 31 295 -10 174 -6 267 16 311 19 39
77 113 83 107 2 -2 -3 -23 -11 -46z m-5197 13 c12 -8 55 -66 95 -127 97 -147
154 -209 228 -246 63 -31 63 -44 -1 -43 -56 1 -130 43 -190 109 -63 69 -200
271 -200 295 0 14 9 20 40 27 3 0 16 -6 28 -15z m236 -29 c20 -9 34 -20 31
-25 -6 -10 -98 -40 -122 -40 -12 0 -53 55 -53 73 0 13 107 7 144 -8z m1638 3
c48 -40 81 -117 109 -263 40 -205 102 -392 170 -512 16 -29 25 -53 20 -53 -22
0 -99 70 -133 120 -56 84 -86 183 -128 422 -17 101 -48 218 -75 281 -9 20 13
23 37 5z m-1962 -58 c7 -16 9 -34 5 -39 -8 -14 -102 -14 -111 0 -10 17 16 57
45 67 34 12 47 6 61 -28z m650 -45 c42 -22 43 -21 -92 -34 -70 -7 -128 -19
-166 -34 -45 -19 -62 -22 -74 -13 -22 17 -52 66 -44 73 16 16 148 32 241 30
75 -2 109 -8 135 -22z m5190 -27 c0 -89 -60 -193 -142 -244 -43 -27 -135 -54
-186 -54 -32 0 -33 1 -30 37 3 36 5 38 47 45 82 14 139 38 169 73 32 36 57 98
49 119 -7 18 57 75 86 76 4 0 7 -24 7 -52z m-5764 -44 c22 -32 12 -41 -55 -54
-87 -16 -162 -13 -198 10 -18 11 -33 24 -33 29 0 5 26 12 58 16 31 3 75 9 97
14 79 17 113 13 131 -15z m5604 -13 c0 -53 -62 -96 -153 -107 l-55 -7 -7 33
c-4 17 -3 36 2 41 5 5 44 15 87 24 44 8 81 17 84 20 9 9 42 5 42 -4z m-4880
-46 c24 -15 49 -32 57 -39 18 -15 142 -163 177 -211 17 -22 61 -75 99 -118 83
-92 81 -114 -6 -74 -67 30 -99 61 -210 203 -114 148 -166 193 -264 232 -45 17
-72 33 -63 36 57 20 154 6 210 -29z m168 18 c50 -33 52 -46 11 -63 -30 -13
-32 -12 -82 38 l-52 52 41 0 c27 0 54 -9 82 -27z m-2144 -87 c22 -76 21 -116
-3 -116 -26 0 -42 23 -48 68 -6 42 13 116 27 107 5 -3 16 -30 24 -59z m1325
18 c38 -48 30 -57 -49 -52 -69 5 -131 31 -114 48 8 8 88 26 126 29 9 0 26 -11
37 -25z m-1033 -20 c10 -40 -22 -73 -133 -135 -118 -66 -180 -107 -250 -166
-29 -25 -54 -41 -54 -36 -6 40 39 113 94 154 40 30 134 85 208 122 30 16 69
41 85 57 36 36 42 36 50 4z m2142 -8 c9 -9 14 -17 11 -19 -2 -2 -55 -18 -118
-37 l-114 -34 -28 32 c-16 18 -29 36 -29 41 0 36 245 51 278 17z m507 3 c28
-5 81 -12 119 -17 l70 -7 17 -87 c9 -48 24 -110 33 -139 8 -29 13 -55 11 -57
-8 -8 -54 28 -72 55 -10 15 -27 56 -39 92 l-21 65 -64 18 c-69 19 -103 40
-128 78 -15 23 -15 24 4 16 11 -4 43 -12 70 -17z m553 -34 c167 -39 230 -99
333 -313 38 -79 69 -145 69 -148 0 -10 -98 -3 -107 9 -6 6 -27 56 -47 109 -78
202 -134 246 -352 273 -42 5 -54 11 -63 31 -21 48 -16 54 47 54 31 0 85 -7
120 -15z m2820 -14 c8 -5 12 -22 10 -42 l-3 -34 -88 2 c-104 1 -160 10 -152
24 24 37 195 75 233 50z m-3778 -58 l33 -27 -59 -17 c-147 -42 -174 -51 -174
-60 0 -5 14 -9 30 -9 21 0 47 -14 85 -45 98 -80 151 -96 228 -70 52 17 78 11
98 -26 14 -28 6 -34 -73 -53 -82 -20 -134 -13 -206 27 -47 26 -175 151 -223
219 -19 27 -19 27 1 38 30 16 160 49 197 49 20 1 43 -9 63 -26z m-535 -3 c29
-32 12 -45 -78 -64 -112 -24 -265 -19 -322 9 l-40 20 94 8 c52 4 133 16 180
26 115 25 144 25 166 1z m-1725 -30 c0 -36 -65 -100 -130 -131 -103 -48 -263
-185 -276 -235 -9 -37 1 -102 25 -158 25 -58 36 -54 78 33 28 56 28 56 31 23
4 -36 -23 -138 -38 -147 -19 -12 -10 -45 15 -57 14 -6 25 -17 25 -25 0 -8 9
-32 19 -54 25 -51 33 -91 22 -107 -19 -31 -220 295 -241 393 -14 62 -6 105 27
159 57 90 138 157 305 252 112 63 138 74 138 54z m3578 -34 c43 -27 68 -56
127 -146 53 -81 88 -150 80 -158 -3 -3 -27 -6 -53 -6 l-47 -1 -75 152 c-41 83
-81 158 -89 167 -22 25 12 21 57 -8z m-288 -30 c43 -28 70 -66 48 -66 -7 0
-31 4 -53 9 -22 5 -71 12 -108 16 -62 6 -70 9 -87 38 -11 17 -17 33 -15 37 2
3 42 3 90 -1 68 -5 93 -12 125 -33z m2719 28 c27 -6 32 -11 29 -33 -3 -25 -6
-26 -83 -33 -44 -4 -97 -15 -117 -24 -48 -21 -99 -95 -134 -194 -91 -257 -203
-401 -339 -439 -54 -15 -149 -14 -210 3 -69 18 -165 65 -165 80 0 7 11 23 25
36 l25 23 72 -33 c130 -60 230 -52 317 26 59 53 108 129 150 237 110 278 183
354 342 356 31 1 71 -2 88 -5z m-4189 -84 c27 -34 62 -72 77 -86 l28 -25 -40
4 c-44 5 -76 18 -116 45 -86 57 -112 74 -125 79 -25 9 -15 20 29 30 84 21 92
18 147 -47z m1998 -34 c31 -16 122 -110 122 -125 0 -15 -79 -36 -91 -24 -5 5
-29 44 -53 86 -39 68 -42 77 -25 77 11 0 32 -6 47 -14z m1765 -15 c11 -11 3
-48 -15 -74 -13 -17 -17 -17 -101 3 -48 11 -99 20 -112 20 -58 0 -18 41 60 61
37 10 155 3 168 -10z m-5733 -46 c16 -43 23 -122 12 -141 -9 -17 -13 -13 -33
30 -35 80 -40 104 -23 121 22 21 33 19 44 -10z m4557 -58 c31 -8 87 -38 141
-75 50 -34 93 -62 95 -62 11 0 165 -91 176 -104 16 -19 0 -52 -29 -61 -37 -12
-88 15 -263 138 -94 66 -188 126 -207 133 -88 31 -14 57 87 31z m1038 -19 c28
-6 57 -14 67 -19 21 -11 13 -44 -15 -64 -21 -15 -32 -14 -155 12 -142 30 -178
11 -306 -160 -94 -126 -217 -249 -291 -291 -54 -31 -160 -46 -204 -29 -23 9
-21 11 30 38 159 82 240 152 430 371 101 116 135 140 218 154 53 9 153 4 226
-12z m-2160 -33 c79 -57 173 -86 300 -92 127 -6 228 13 368 71 131 53 184 68
218 61 20 -5 29 -12 27 -23 -4 -22 -159 -96 -303 -145 -120 -41 -120 -41 -275
-42 -148 0 -158 1 -222 28 -73 31 -150 92 -173 138 -30 56 -13 57 60 4z m-680
5 l28 -30 -39 -16 c-28 -12 -59 -15 -114 -12 -67 4 -129 22 -117 34 6 6 177
52 198 53 8 1 28 -12 44 -29z m2252 -24 c86 -39 89 -45 50 -90 l-32 -37 -51
28 c-147 81 -204 116 -204 125 0 7 31 9 88 6 68 -3 101 -10 149 -32z m-528
-47 c18 -6 30 -16 29 -21 -4 -12 -123 -63 -167 -71 -26 -6 -37 -2 -57 18 -30
30 -25 41 30 66 46 21 117 24 165 8z m-4513 -76 c13 -89 -21 -218 -57 -218
-21 0 -22 37 -5 115 9 38 16 91 16 118 0 27 3 52 7 56 12 12 32 -24 39 -71z
m6017 57 c11 -10 -46 -111 -84 -148 -34 -33 -95 -69 -104 -61 -5 6 87 207 101
222 10 9 74 0 87 -13z m-1707 -139 c47 -43 109 -92 139 -107 30 -16 55 -32 55
-36 0 -4 -16 -10 -35 -14 -75 -14 -181 38 -267 130 -53 56 -60 82 -25 96 39
16 47 11 133 -69z m-4596 -23 c19 -39 73 -132 119 -206 95 -155 117 -208 103
-249 l-9 -28 -19 33 c-11 18 -39 63 -63 100 -106 161 -178 290 -184 326 -6 39
1 96 12 96 3 0 22 -32 41 -72z m5659 47 c41 -27 129 -46 174 -38 32 6 37 -15
10 -38 -39 -32 -71 -42 -121 -35 -56 7 -164 47 -169 62 -3 10 51 74 62 74 3 0
23 -11 44 -25z m-1244 -52 c69 -83 113 -121 174 -150 77 -37 161 -41 247 -14
59 19 204 90 274 133 17 11 25 10 47 -2 14 -8 28 -20 30 -26 5 -15 -97 -83
-201 -135 -110 -54 -223 -76 -321 -62 -107 15 -175 51 -266 139 -71 70 -80 76
-106 68 -15 -4 -73 -8 -128 -8 -79 -1 -111 3 -145 18 -45 20 -80 44 -80 55 0
3 57 5 127 3 98 -2 147 2 208 17 44 10 83 19 86 20 4 0 28 -25 54 -56z m1052
-181 c13 -8 21 -17 19 -21 -11 -17 -103 -54 -145 -58 l-46 -5 55 55 c58 58 69
61 117 29z m-5455 -60 c7 -28 3 -43 -35 -107 -24 -41 -46 -72 -50 -68 -4 3 -7
25 -7 48 0 47 55 168 73 162 6 -2 15 -18 19 -35z m67 -94 c9 -25 -10 -79 -54
-147 -29 -47 -40 -46 -47 1 -6 38 6 78 39 131 26 42 50 48 62 15z m104 -245
c6 -33 -7 -124 -23 -153 -6 -12 -17 -39 -25 -60 -12 -33 -12 -38 0 -34 20 8
53 -18 91 -72 31 -44 45 -94 26 -94 -10 0 -104 97 -125 129 l-16 24 -17 -39
c-9 -21 -29 -66 -45 -100 -16 -34 -29 -68 -29 -76 0 -8 -6 -23 -14 -33 -13
-19 -15 -18 -21 16 -7 38 17 135 42 174 12 18 10 21 -19 35 -40 19 -78 73 -78
111 0 16 3 29 8 28 10 0 92 -116 92 -130 0 -15 21 -6 34 14 8 13 3 26 -21 59
-54 73 -91 141 -98 181 -12 62 15 45 79 -53 32 -49 62 -87 66 -85 5 3 14 22
21 43 27 84 51 142 59 142 4 0 10 -12 13 -27z m23 -190 c-20 -36 -21 -8 -3 51
l12 41 3 -32 c2 -18 -4 -45 -12 -60z m-22 -224 c114 -104 128 -179 15 -86 -88
74 -102 91 -94 116 3 12 10 21 15 21 5 0 33 -23 64 -51z m-77 -35 c17 -17 15
-45 -12 -137 -21 -74 -37 -63 -39 25 -1 54 17 128 31 128 2 0 11 -7 20 -16z
m175 -196 c10 -17 12 -58 8 -153 -2 -71 -5 -189 -5 -262 0 -126 1 -132 25
-158 14 -15 40 -34 58 -41 21 -9 32 -21 32 -34 0 -24 -18 -25 -62 -4 -41 19
-69 56 -71 92 -1 15 -8 32 -15 37 -32 26 -35 224 -7 460 2 17 4 42 4 58 1 33
16 35 33 5z m-163 -93 c30 -30 57 -55 62 -55 14 0 29 -37 23 -54 -10 -26 -28
-19 -79 33 -53 54 -74 86 -75 114 0 27 11 21 69 -38z m53 -162 c19 -17 23 -49
9 -71 -6 -10 -17 -3 -45 29 -20 23 -36 51 -36 61 0 15 4 16 27 7 16 -6 36 -18
45 -26z m194 5 c29 -33 56 -79 50 -85 -9 -10 -91 42 -94 60 -4 22 4 47 16 47
5 0 17 -10 28 -22z m77 -185 c36 -52 47 -119 47 -282 l0 -136 -27 28 -28 27
-1 155 c-1 170 0 168 -71 216 -40 28 -56 63 -37 82 11 11 89 -49 117 -90z
m116 -183 c6 -19 15 -77 22 -129 14 -124 20 -136 72 -159 53 -23 114 -82 133
-129 24 -57 6 -56 -49 2 -29 30 -77 68 -107 84 -66 34 -88 72 -101 173 -10 76
-2 216 11 201 4 -4 12 -24 19 -43z m109 -190 c52 -38 57 -65 10 -56 -39 8 -54
22 -63 59 -9 35 2 34 53 -3z"/>
        <path d="M7950 10234 c-160 -17 -354 -48 -465 -75 -144 -35 -336 -101 -343
-117 -3 -8 0 -119 7 -246 8 -166 9 -273 1 -381 -50 -742 -57 -1051 -35 -1595
9 -239 19 -437 21 -439 2 -2 36 16 76 40 136 81 268 133 434 169 115 25 352
39 491 28 82 -6 276 -39 326 -54 18 -6 18 14 11 508 -4 282 -4 542 0 578 l7
65 92 65 c120 84 254 184 400 298 106 84 119 92 140 81 12 -7 24 -15 27 -18 3
-3 43 -35 90 -71 47 -35 130 -100 185 -145 56 -44 116 -91 135 -105 18 -14 68
-52 109 -86 142 -113 265 -200 608 -428 l342 -228 60 -106 c81 -147 169 -325
229 -462 190 -438 439 -957 572 -1195 31 -55 72 -128 90 -162 39 -74 32 -73
198 -38 192 41 393 116 537 203 155 93 368 285 446 403 l27 42 -92 181 c-51
99 -107 217 -125 261 -108 262 -229 496 -371 715 -117 181 -170 282 -388 730
-70 146 -141 297 -157 336 -26 65 -33 73 -79 98 -70 36 -195 117 -356 229 -74
51 -180 122 -235 158 -94 60 -168 110 -375 250 -94 64 -200 155 -200 172 0 6
7 18 16 28 22 25 12 35 -48 49 -29 7 -116 27 -193 46 -77 18 -219 47 -315 65
-96 17 -209 37 -250 45 -118 21 -456 72 -560 84 -349 40 -831 50 -1090 24z"/>
        <path d="M8321 6686 c14 -14 170 -62 175 -54 10 16 -7 26 -71 42 -56 15 -114
21 -104 12z"/>
        <path d="M7243 6183 c-16 -21 -52 -74 -79 -118 l-49 -80 -3 -185 c-4 -203 25
-1923 34 -2008 7 -63 25 -77 89 -68 44 7 142 61 193 108 35 31 191 146 277
204 58 39 204 123 405 234 52 29 148 82 213 117 154 85 182 112 192 181 4 29
4 83 1 120 -3 37 -13 290 -22 562 -9 272 -19 498 -22 501 -4 4 -70 29 -147 57
-159 57 -642 242 -695 266 -19 8 -81 33 -138 56 -57 22 -126 52 -152 65 -27
14 -54 25 -59 25 -5 0 -22 -17 -38 -37z"/>
        <path d="M13255 5564 c-262 -224 -677 -432 -1032 -520 -37 -9 -72 -20 -76 -24
-8 -7 394 -815 457 -920 15 -25 38 -63 52 -85 13 -22 29 -49 35 -61 19 -37 67
-56 197 -75 290 -43 478 -48 802 -19 390 35 460 39 686 40 130 0 234 4 252 11
61 21 49 84 -30 154 -24 21 -133 125 -243 230 -110 106 -285 268 -390 360
-307 270 -317 282 -412 463 -25 48 -64 119 -88 157 -23 39 -72 125 -110 193
-37 67 -68 122 -69 122 0 -1 -14 -12 -31 -26z"/>
    </g>
</svg>
